<mxfile host="drawio-plugin" modified="2021-12-21T08:26:44.168Z" agent="5.0 (Macintosh; Intel Mac OS X 11_6_0) AppleWebKit/537.36 (KHTML, like Gecko) Chrome/89.0.4389.114 Safari/537.36" etag="LH2JKBTcqSlmpDd78EZn" version="14.7.4" type="embed"><diagram id="xOzwDYJeCoK_-xXMeRwq" name="第 1 页"><mxGraphModel dx="926" dy="813" grid="1" gridSize="10" guides="1" tooltips="1" connect="1" arrows="1" fold="1" page="1" pageScale="1" pageWidth="1169" pageHeight="827" math="0" shadow="0"><root><mxCell id="0"/><mxCell id="1" parent="0"/><mxCell id="_au9KS3bmlxHn1y4zkFz-19" value="" style="ellipse;whiteSpace=wrap;html=1;dashed=1;fillColor=#fad7ac;strokeColor=#b46504;" parent="1" vertex="1"><mxGeometry x="570" y="95" width="470" height="150" as="geometry"/></mxCell><mxCell id="MAHxq6LShpZ1iSu7HEtk-37" style="edgeStyle=orthogonalEdgeStyle;rounded=0;orthogonalLoop=1;jettySize=auto;html=1;exitX=0.5;exitY=1;exitDx=0;exitDy=0;entryX=0;entryY=0.5;entryDx=0;entryDy=0;fontSize=17;dashed=1;" parent="1" source="_au9KS3bmlxHn1y4zkFz-1" target="_au9KS3bmlxHn1y4zkFz-12" edge="1"><mxGeometry relative="1" as="geometry"/></mxCell><mxCell id="MAHxq6LShpZ1iSu7HEtk-38" style="edgeStyle=orthogonalEdgeStyle;rounded=0;orthogonalLoop=1;jettySize=auto;html=1;exitX=0.5;exitY=1;exitDx=0;exitDy=0;entryX=0;entryY=0.5;entryDx=0;entryDy=0;fontSize=17;dashed=1;" parent="1" source="_au9KS3bmlxHn1y4zkFz-1" target="MAHxq6LShpZ1iSu7HEtk-22" edge="1"><mxGeometry relative="1" as="geometry"/></mxCell><mxCell id="_au9KS3bmlxHn1y4zkFz-1" value="" style="rounded=1;whiteSpace=wrap;html=1;gradientColor=#ea6b66;fillColor=#f8cecc;strokeColor=#b85450;" parent="1" vertex="1"><mxGeometry x="230" y="100" width="190" height="110" as="geometry"/></mxCell><mxCell id="MAHxq6LShpZ1iSu7HEtk-45" style="edgeStyle=orthogonalEdgeStyle;rounded=0;orthogonalLoop=1;jettySize=auto;html=1;exitX=1;exitY=0.5;exitDx=0;exitDy=0;entryX=0;entryY=0.5;entryDx=0;entryDy=0;fontSize=17;" parent="1" source="_au9KS3bmlxHn1y4zkFz-3" target="MAHxq6LShpZ1iSu7HEtk-23" edge="1"><mxGeometry relative="1" as="geometry"/></mxCell><mxCell id="_au9KS3bmlxHn1y4zkFz-3" value="executor" style="rounded=0;whiteSpace=wrap;html=1;gradientColor=#ffd966;fillColor=#fff2cc;strokeColor=#d6b656;" parent="1" vertex="1"><mxGeometry x="110" y="250" width="120" height="60" as="geometry"/></mxCell><mxCell id="MAHxq6LShpZ1iSu7HEtk-44" style="edgeStyle=orthogonalEdgeStyle;rounded=0;orthogonalLoop=1;jettySize=auto;html=1;exitX=1;exitY=0.5;exitDx=0;exitDy=0;entryX=0;entryY=0.5;entryDx=0;entryDy=0;fontSize=17;" parent="1" source="_au9KS3bmlxHn1y4zkFz-4" target="MAHxq6LShpZ1iSu7HEtk-23" edge="1"><mxGeometry relative="1" as="geometry"/></mxCell><mxCell id="_au9KS3bmlxHn1y4zkFz-4" value="executor" style="rounded=0;whiteSpace=wrap;html=1;gradientColor=#ffd966;fillColor=#fff2cc;strokeColor=#d6b656;" parent="1" vertex="1"><mxGeometry x="110" y="340" width="120" height="60" as="geometry"/></mxCell><mxCell id="MAHxq6LShpZ1iSu7HEtk-41" style="edgeStyle=orthogonalEdgeStyle;rounded=0;orthogonalLoop=1;jettySize=auto;html=1;exitX=1;exitY=0.5;exitDx=0;exitDy=0;entryX=0;entryY=0.5;entryDx=0;entryDy=0;fontSize=17;" parent="1" source="_au9KS3bmlxHn1y4zkFz-5" target="_au9KS3bmlxHn1y4zkFz-90" edge="1"><mxGeometry relative="1" as="geometry"/></mxCell><mxCell id="_au9KS3bmlxHn1y4zkFz-5" value="executor" style="rounded=0;whiteSpace=wrap;html=1;gradientColor=#ffd966;fillColor=#fff2cc;strokeColor=#d6b656;" parent="1" vertex="1"><mxGeometry x="110" y="420" width="120" height="60" as="geometry"/></mxCell><mxCell id="_au9KS3bmlxHn1y4zkFz-21" style="edgeStyle=orthogonalEdgeStyle;rounded=0;orthogonalLoop=1;jettySize=auto;html=1;exitX=1;exitY=0.5;exitDx=0;exitDy=0;entryX=0;entryY=0.5;entryDx=0;entryDy=0;dashed=1;dashPattern=1 1;" parent="1" source="_au9KS3bmlxHn1y4zkFz-6" target="_au9KS3bmlxHn1y4zkFz-19" edge="1"><mxGeometry relative="1" as="geometry"/></mxCell><mxCell id="_au9KS3bmlxHn1y4zkFz-6" value="LifecycleManager" style="rounded=1;whiteSpace=wrap;html=1;fillColor=#d5e8d4;strokeColor=#82b366;" parent="1" vertex="1"><mxGeometry x="265" y="140" width="120" height="60" as="geometry"/></mxCell><mxCell id="_au9KS3bmlxHn1y4zkFz-7" value="Driver" style="text;html=1;strokeColor=none;fillColor=none;align=center;verticalAlign=middle;whiteSpace=wrap;rounded=0;" parent="1" vertex="1"><mxGeometry x="305" y="110" width="40" height="20" as="geometry"/></mxCell><mxCell id="_au9KS3bmlxHn1y4zkFz-8" value="Celeborn Master" style="rounded=1;whiteSpace=wrap;html=1;fillColor=#fff2cc;strokeColor=#d6b656;" parent="1" vertex="1"><mxGeometry x="620" y="140" width="120" height="60" as="geometry"/></mxCell><mxCell id="_au9KS3bmlxHn1y4zkFz-9" value="Celeborn Master" style="rounded=1;whiteSpace=wrap;html=1;fillColor=#fff2cc;strokeColor=#d6b656;" parent="1" vertex="1"><mxGeometry x="750" y="140" width="120" height="60" as="geometry"/></mxCell><mxCell id="_au9KS3bmlxHn1y4zkFz-11" value="&lt;span style=&quot;font-weight: normal&quot;&gt;Celeborn Master&lt;/span&gt;" style="rounded=1;whiteSpace=wrap;html=1;fontStyle=1;fillColor=#fff2cc;strokeColor=#d6b656;" parent="1" vertex="1"><mxGeometry x="880" y="140" width="120" height="60" as="geometry"/></mxCell><mxCell id="MAHxq6LShpZ1iSu7HEtk-30" style="edgeStyle=orthogonalEdgeStyle;rounded=0;orthogonalLoop=1;jettySize=auto;html=1;exitX=1;exitY=0.5;exitDx=0;exitDy=0;entryX=1;entryY=0.5;entryDx=0;entryDy=0;fontSize=17;" parent="1" source="_au9KS3bmlxHn1y4zkFz-12" target="_au9KS3bmlxHn1y4zkFz-19" edge="1"><mxGeometry relative="1" as="geometry"><Array as="points"><mxPoint x="1100" y="345"/><mxPoint x="1100" y="170"/></Array></mxGeometry></mxCell><mxCell id="_au9KS3bmlxHn1y4zkFz-12" value="" style="rounded=0;whiteSpace=wrap;html=1;gradientColor=#97d077;fillColor=#d5e8d4;strokeColor=#82b366;" parent="1" vertex="1"><mxGeometry x="720" y="295" width="170" height="99" as="geometry"/></mxCell><mxCell id="_au9KS3bmlxHn1y4zkFz-16" value="" style="endArrow=classic;html=1;exitX=0;exitY=0.5;exitDx=0;exitDy=0;entryX=0;entryY=0.5;entryDx=0;entryDy=0;" parent="1" source="_au9KS3bmlxHn1y4zkFz-3" target="_au9KS3bmlxHn1y4zkFz-6" edge="1"><mxGeometry width="50" height="50" relative="1" as="geometry"><mxPoint x="480" y="370" as="sourcePoint"/><mxPoint x="110" y="160" as="targetPoint"/><Array as="points"><mxPoint x="70" y="280"/><mxPoint x="70" y="170"/></Array></mxGeometry></mxCell><mxCell id="_au9KS3bmlxHn1y4zkFz-17" value="" style="endArrow=classic;html=1;exitX=0;exitY=0.5;exitDx=0;exitDy=0;entryX=0;entryY=0.5;entryDx=0;entryDy=0;" parent="1" source="_au9KS3bmlxHn1y4zkFz-4" target="_au9KS3bmlxHn1y4zkFz-6" edge="1"><mxGeometry width="50" height="50" relative="1" as="geometry"><mxPoint x="480" y="370" as="sourcePoint"/><mxPoint x="530" y="320" as="targetPoint"/><Array as="points"><mxPoint x="70" y="370"/><mxPoint x="70" y="170"/></Array></mxGeometry></mxCell><mxCell id="_au9KS3bmlxHn1y4zkFz-18" value="" style="endArrow=classic;html=1;exitX=0;exitY=0.5;exitDx=0;exitDy=0;entryX=0;entryY=0.5;entryDx=0;entryDy=0;" parent="1" source="_au9KS3bmlxHn1y4zkFz-5" target="_au9KS3bmlxHn1y4zkFz-6" edge="1"><mxGeometry width="50" height="50" relative="1" as="geometry"><mxPoint x="480" y="370" as="sourcePoint"/><mxPoint x="530" y="320" as="targetPoint"/><Array as="points"><mxPoint x="70" y="450"/><mxPoint x="70" y="170"/></Array></mxGeometry></mxCell><mxCell id="_au9KS3bmlxHn1y4zkFz-20" value="Raft HA" style="text;html=1;strokeColor=none;fillColor=none;align=center;verticalAlign=middle;whiteSpace=wrap;rounded=0;dashed=1;" parent="1" vertex="1"><mxGeometry x="777.5" y="110" width="55" height="20" as="geometry"/></mxCell><mxCell id="_au9KS3bmlxHn1y4zkFz-90" value="Push Server" style="rounded=0;whiteSpace=wrap;html=1;dashed=1;fillColor=#cdeb8b;strokeColor=#36393d;" parent="1" vertex="1"><mxGeometry x="730" y="344" width="60" height="30" as="geometry"/></mxCell><mxCell id="_au9KS3bmlxHn1y4zkFz-91" value="Fetch Server" style="rounded=0;whiteSpace=wrap;html=1;dashed=1;fillColor=#ffff88;strokeColor=#36393d;" parent="1" vertex="1"><mxGeometry x="820" y="344" width="60" height="30" as="geometry"/></mxCell><mxCell id="_au9KS3bmlxHn1y4zkFz-92" value="Celeborn Worker" style="text;html=1;strokeColor=none;fillColor=none;align=center;verticalAlign=middle;whiteSpace=wrap;rounded=0;" parent="1" vertex="1"><mxGeometry x="775" y="314" width="70" height="20" as="geometry"/></mxCell><mxCell id="_au9KS3bmlxHn1y4zkFz-97" value="&lt;font face=&quot;Comic Sans MS&quot; style=&quot;font-size: 14px&quot;&gt;1: RegisterWorker / Heartbeat&lt;br&gt;2:&amp;nbsp; HeartbeatFromApplication / RequestSlots / UnregisterShuffle&lt;br&gt;3: RegisterShuffle / Revive / MapperEnd&lt;br&gt;4: ReserverBuffers / CommitFiles / Destroy&lt;br&gt;5: PushData / PushMergedData&lt;br&gt;6: Replicate&lt;br&gt;&lt;/font&gt;" style="text;html=1;strokeColor=none;fillColor=none;align=center;verticalAlign=middle;whiteSpace=wrap;rounded=0;fontSize=12;" parent="1" vertex="1"><mxGeometry x="40" y="540" width="580" height="120" as="geometry"/></mxCell><mxCell id="MAHxq6LShpZ1iSu7HEtk-2" value="&lt;font style=&quot;font-size: 18px&quot;&gt;2&lt;/font&gt;" style="ellipse;whiteSpace=wrap;html=1;aspect=fixed;fontSize=17;fillColor=#ffcccc;strokeColor=#36393d;" parent="1" vertex="1"><mxGeometry x="470" y="154" width="30" height="30" as="geometry"/></mxCell><mxCell id="MAHxq6LShpZ1iSu7HEtk-3" value="&lt;font style=&quot;font-size: 18px&quot;&gt;3&lt;/font&gt;" style="ellipse;whiteSpace=wrap;html=1;aspect=fixed;fontSize=17;fillColor=#ffcccc;strokeColor=#36393d;" parent="1" vertex="1"><mxGeometry x="139" y="155" width="30" height="30" as="geometry"/></mxCell><mxCell id="MAHxq6LShpZ1iSu7HEtk-4" value="&lt;font style=&quot;font-size: 18px&quot;&gt;4&lt;/font&gt;" style="ellipse;whiteSpace=wrap;html=1;aspect=fixed;fontSize=17;fillColor=#ffcccc;strokeColor=#36393d;" parent="1" vertex="1"><mxGeometry x="310" y="237" width="30" height="30" as="geometry"/></mxCell><mxCell id="MAHxq6LShpZ1iSu7HEtk-13" value="&lt;font style=&quot;font-size: 18px&quot;&gt;5&lt;/font&gt;" style="ellipse;whiteSpace=wrap;html=1;aspect=fixed;fontSize=17;fillColor=#ffcccc;strokeColor=#36393d;" parent="1" vertex="1"><mxGeometry x="265" y="435" width="30" height="30" as="geometry"/></mxCell><mxCell id="MAHxq6LShpZ1iSu7HEtk-33" style="edgeStyle=orthogonalEdgeStyle;rounded=0;orthogonalLoop=1;jettySize=auto;html=1;exitX=1;exitY=0.5;exitDx=0;exitDy=0;entryX=1;entryY=0.5;entryDx=0;entryDy=0;fontSize=17;" parent="1" source="MAHxq6LShpZ1iSu7HEtk-22" target="_au9KS3bmlxHn1y4zkFz-19" edge="1"><mxGeometry relative="1" as="geometry"><Array as="points"><mxPoint x="1100" y="485"/><mxPoint x="1100" y="170"/></Array></mxGeometry></mxCell><mxCell id="MAHxq6LShpZ1iSu7HEtk-22" value="" style="rounded=0;whiteSpace=wrap;html=1;gradientColor=#97d077;fillColor=#d5e8d4;strokeColor=#82b366;" parent="1" vertex="1"><mxGeometry x="720" y="435" width="170" height="99" as="geometry"/></mxCell><mxCell id="MAHxq6LShpZ1iSu7HEtk-23" value="Push Server" style="rounded=0;whiteSpace=wrap;html=1;dashed=1;fillColor=#cdeb8b;strokeColor=#36393d;" parent="1" vertex="1"><mxGeometry x="730" y="484" width="60" height="30" as="geometry"/></mxCell><mxCell id="MAHxq6LShpZ1iSu7HEtk-24" value="Fetch Server" style="rounded=0;whiteSpace=wrap;html=1;dashed=1;fillColor=#ffff88;strokeColor=#36393d;" parent="1" vertex="1"><mxGeometry x="820" y="484" width="60" height="30" as="geometry"/></mxCell><mxCell id="MAHxq6LShpZ1iSu7HEtk-25" value="Celeborn Worker" style="text;html=1;strokeColor=none;fillColor=none;align=center;verticalAlign=middle;whiteSpace=wrap;rounded=0;" parent="1" vertex="1"><mxGeometry x="775" y="454" width="70" height="20" as="geometry"/></mxCell><mxCell id="MAHxq6LShpZ1iSu7HEtk-1" value="&lt;font style=&quot;font-size: 18px&quot;&gt;1&lt;/font&gt;" style="ellipse;whiteSpace=wrap;html=1;aspect=fixed;fontSize=17;fillColor=#ffcccc;strokeColor=#36393d;" parent="1" vertex="1"><mxGeometry x="1085" y="245" width="30" height="30" as="geometry"/></mxCell><mxCell id="MAHxq6LShpZ1iSu7HEtk-36" value="" style="endArrow=classic;startArrow=classic;html=1;fontSize=17;entryX=0.5;entryY=1;entryDx=0;entryDy=0;exitX=0.5;exitY=0;exitDx=0;exitDy=0;" parent="1" source="MAHxq6LShpZ1iSu7HEtk-23" target="_au9KS3bmlxHn1y4zkFz-90" edge="1"><mxGeometry width="50" height="50" relative="1" as="geometry"><mxPoint x="880" y="420" as="sourcePoint"/><mxPoint x="930" y="370" as="targetPoint"/></mxGeometry></mxCell><mxCell id="MAHxq6LShpZ1iSu7HEtk-6" value="&lt;font style=&quot;font-size: 18px&quot;&gt;6&lt;/font&gt;" style="ellipse;whiteSpace=wrap;html=1;aspect=fixed;fontSize=17;fillColor=#ffcccc;strokeColor=#36393d;" parent="1" vertex="1"><mxGeometry x="745" y="400" width="30" height="30" as="geometry"/></mxCell><mxCell id="MAHxq6LShpZ1iSu7HEtk-40" style="edgeStyle=orthogonalEdgeStyle;rounded=0;orthogonalLoop=1;jettySize=auto;html=1;exitX=1;exitY=0.5;exitDx=0;exitDy=0;entryX=0;entryY=0.5;entryDx=0;entryDy=0;fontSize=17;" parent="1" source="_au9KS3bmlxHn1y4zkFz-4" target="_au9KS3bmlxHn1y4zkFz-90" edge="1"><mxGeometry relative="1" as="geometry"/></mxCell><mxCell id="MAHxq6LShpZ1iSu7HEtk-39" style="edgeStyle=orthogonalEdgeStyle;rounded=0;orthogonalLoop=1;jettySize=auto;html=1;exitX=1;exitY=0.5;exitDx=0;exitDy=0;entryX=0;entryY=0.5;entryDx=0;entryDy=0;fontSize=17;" parent="1" source="_au9KS3bmlxHn1y4zkFz-3" target="_au9KS3bmlxHn1y4zkFz-90" edge="1"><mxGeometry relative="1" as="geometry"/></mxCell><mxCell id="MAHxq6LShpZ1iSu7HEtk-12" value="&lt;font style=&quot;font-size: 18px&quot;&gt;5&lt;/font&gt;" style="ellipse;whiteSpace=wrap;html=1;aspect=fixed;fontSize=17;fillColor=#ffcccc;strokeColor=#36393d;" parent="1" vertex="1"><mxGeometry x="263" y="355" width="30" height="30" as="geometry"/></mxCell><mxCell id="MAHxq6LShpZ1iSu7HEtk-5" value="&lt;font style=&quot;font-size: 18px&quot;&gt;5&lt;/font&gt;" style="ellipse;whiteSpace=wrap;html=1;aspect=fixed;fontSize=17;fillColor=#ffcccc;strokeColor=#36393d;" parent="1" vertex="1"><mxGeometry x="265" y="265" width="30" height="30" as="geometry"/></mxCell><mxCell id="MAHxq6LShpZ1iSu7HEtk-42" style="edgeStyle=orthogonalEdgeStyle;rounded=0;orthogonalLoop=1;jettySize=auto;html=1;exitX=1;exitY=0.5;exitDx=0;exitDy=0;entryX=0;entryY=0.5;entryDx=0;entryDy=0;fontSize=17;" parent="1" source="_au9KS3bmlxHn1y4zkFz-5" target="MAHxq6LShpZ1iSu7HEtk-23" edge="1"><mxGeometry relative="1" as="geometry"/></mxCell></root></mxGraphModel></diagram></mxfile>